<?xml version="1.0" encoding="UTF-8"?>
<svg xmlns="http://www.w3.org/2000/svg" viewBox="-51.68 -408.87 2129.28 484.78" width="2129" height="485">
<rect x="-51.68" y="-408.87" width="2129.28" height="484.78" fill="#FFFFFF"/><g transform="translate(0.00 0.00) scale(0.20353 -0.20353)" fill="#111113"><path d="M791 961V1556H1083V0H791V166Q744 69 669.5 20.0Q595 -29 494 -29Q302 -29 196.0 125.0Q90 279 90 559Q90 843 197.5 995.0Q305 1147 504 1147Q594 1147 665.5 1100.5Q737 1054 791 961ZM383 557Q383 395 437.0 303.0Q491 211 586 211Q681 211 736.0 303.0Q791 395 791 557Q791 719 736.0 811.0Q681 903 586 903Q491 903 437.0 811.0Q383 719 383 557Z"/></g><g transform="translate(250.95 0.00) scale(0.20353 -0.20353)" fill="#111113"><path d="M1102 55Q1000 13 894.0 -8.0Q788 -29 670 -29Q389 -29 240.5 121.5Q92 272 92 555Q92 829 235.0 988.0Q378 1147 625 1147Q874 1147 1011.5 999.5Q1149 852 1149 584V465H390Q391 333 468.0 268.0Q545 203 698 203Q799 203 897.0 232.0Q995 261 1102 324ZM854 685Q852 801 794.5 860.5Q737 920 625 920Q524 920 464.0 858.5Q404 797 393 684Z"/></g><g transform="translate(501.90 0.00) scale(0.20353 -0.20353)" fill="#111113"><path d="M700 526Q536 526 471.0 484.0Q406 442 406 340Q406 264 451.0 219.0Q496 174 573 174Q689 174 753.0 261.5Q817 349 817 506V526ZM1108 639V0H817V125Q764 51 681.0 11.0Q598 -29 498 -29Q307 -29 200.5 72.0Q94 173 94 354Q94 550 221.0 643.5Q348 737 614 737H817V786Q817 857 765.5 893.5Q714 930 614 930Q509 930 410.5 903.5Q312 877 205 819V1069Q302 1109 402.0 1128.0Q502 1147 614 1147Q887 1147 997.5 1036.0Q1108 925 1108 639Z"/></g><g transform="translate(752.85 0.00) scale(0.20353 -0.20353)" fill="#111113"><path d="M1071 727V0H780V682Q780 804 745.5 856.5Q711 909 633 909Q554 909 508.5 838.0Q463 767 463 641V0H172V1120H463V952Q494 1045 569.0 1096.0Q644 1147 750 1147Q909 1147 990.0 1041.5Q1071 936 1071 727Z"/></g><g transform="translate(1003.80 0.00) scale(0.20353 -0.20353)" fill="#111113"><path d="M449 367H782V0H449Z"/></g><g transform="translate(1254.75 0.00) scale(0.20353 -0.20353)" fill="#111113"><path d="M221 1120H801V225H1165V0H143V225H508V895H221ZM508 1665H801V1323H508Z"/></g><g transform="translate(1505.70 0.00) scale(0.20353 -0.20353)" fill="#111113"><path d="M791 961V1556H1083V0H791V166Q744 69 669.5 20.0Q595 -29 494 -29Q302 -29 196.0 125.0Q90 279 90 559Q90 843 197.5 995.0Q305 1147 504 1147Q594 1147 665.5 1100.5Q737 1054 791 961ZM383 557Q383 395 437.0 303.0Q491 211 586 211Q681 211 736.0 303.0Q791 395 791 557Q791 719 736.0 811.0Q681 903 586 903Q491 903 437.0 811.0Q383 719 383 557Z"/></g><rect x="1786.76" y="-208.41" width="220.84" height="208.41" fill="#28C840"/></svg>